<svg xmlns="http://www.w3.org/2000/svg" xmlns:xlink="http://www.w3.org/1999/xlink" viewBox="0 0 555.7 124"><defs><path id="a" d="M4.4 5.3h547v113.5H4.4z"/></defs><clipPath id="b"><use xlink:href="#a" overflow="visible"/></clipPath><path d="M539.1 90.4l11.1-.8 1.2-7.3-.8-8.2-4-.8-11.2.8-1.1 7 .8 8.4 4 .9zm-36.7 1.2c-3.3 0-6.7-.5-10.4-1.4-3.7-.9-6.9-2-9.6-3.3l-1.1-17.1h4.9l5.3 11.7c1.7 1.7 3.5 2.9 5.2 3.8s3.6 1.3 5.7 1.3c2.5 0 4.6-.7 6.1-2s2.3-3 2.3-4.9c0-2-.6-3.6-1.7-4.9-1.1-1.3-3.2-2.8-6.3-4.6L492.4 64c-3.2-1.8-5.8-3.9-7.6-6.2-1.8-2.3-2.7-5.2-2.7-8.6 0-4.3 1.8-7.9 5.3-10.9s9.2-5.4 17-7.2c4.2 0 7.7.4 10.5 1.1 2.8.7 5.5 1.7 8.1 3.1v15.8h-4.4l-5.7-11.4c-2.5-2.5-5.5-3.8-8.8-3.8-2.3 0-4.2.6-5.6 1.8-1.4 1.2-2.1 2.7-2.1 4.5s.6 3.4 1.8 4.6c1.2 1.3 3.5 2.9 6.7 4.8l10.4 6.1c3.5 1.9 6 4 7.6 6.4 1.6 2.3 2.4 5.2 2.4 8.5 0 4.8-1.9 8.8-5.6 11.8-3.9 3.1-9.6 5.5-17.3 7.2m-51.8-38.9c0 4.4-.6 7.9-1.8 10.2-1.2 2.4-3.1 3.6-5.7 3.6-6.1 0-9.2-5.6-9.2-16.8 0-4.5.6-8 1.8-10.4s3.1-3.6 5.7-3.6c6.2 0 9.2 5.7 9.2 17m-18.2 40.5h22.8c5.4 0 8.1 2 8.1 5.9 0 3-1.7 5.5-5 7.5s-7.9 3-13.7 3c-5.2 0-9.2-.8-12-2.4-2.7-1.6-4.1-3.8-4.1-6.5.1-2.6 1.4-5.1 3.9-7.5m44.8-48.6V31.3h-7.1l-5.4 10.9c-1.7-3.4-4.3-6.1-7.9-8s-8-2.9-13.2-2.9c-8.6 2.1-15 4.7-19.2 7.9-4.2 3.2-6.3 7.5-6.4 12.9 0 3.7 1.1 7.1 3.3 10s5.2 5.2 9 6.8l-12.5 8.7v2.5c0 6.6 3.7 10.8 11.2 12.6l-13.9 9.4v2.5c0 5.1 2.3 8.7 7 10.9 4.6 2.2 11.2 3.3 19.8 3.3 10.2-3.5 18.1-7.4 23.7-11.6 5.5-4.2 8.3-9.3 8.3-15.2 0-3.8-1.3-6.9-3.8-9.3s-6.1-3.6-10.6-3.6h-24.2c-3.8 0-5.7-1.5-5.7-4.5l4.1-4.5c2 .6 4.5 1 7.6 1 8.6-2.1 15-4.8 19.2-8.1 4.1-3.3 6.2-7.7 6.3-13.2 0-1.2-.3-2.5-.8-4l1.4-1h9.8v-.2zM347.4 86l6.7-1.2V39.5l-6.8.8-.5-3.9 19.2-3.9 4.5-.2.1 11.2L390 31.3c4.4 0 7.7.6 10 1.8 2.3 1.2 4 3.1 4.9 5.6s1.4 6.1 1.4 10.7V85l7 1.2-.2 3.8-14.8-.2-13.6.2-.2-3.8 4.6-1.2V49.3c0-4.8-2-7.1-6-7.1-1.6 0-3.1.3-4.6 1s-3.2 1.7-5.2 3l-3 1.8v36.9l4.9 1.2-.4 3.8-13-.2-14.5.2.1-3.9zm-47 5.5l18.3-11.7 2.9 10.9 20.1-3.8-.4-3.7-5 .1c-.5-1.5-.8-2.9-1.1-4.3-.2-1.4-.4-3.1-.4-5.4V32.4l-5.2.2-17.8 3.7.2 3.8 6.2-.5v35.8l-2.6 1.6c-1.7 1.1-3.3 2-4.6 2.6-1.3.6-2.7.9-3.9.9-2.2 0-3.9-.6-4.9-1.8-1-1.2-1.5-3.2-1.5-5.8V32.4l-5.2.2-18.7 3.7.4 3.8 6.3-.5v33.8c0 4.5.5 8.1 1.5 10.7s2.7 4.5 5.1 5.7c2.3 1.1 5.8 1.7 10.3 1.7m-62.5 12.3H250l.5-2.5c.8-3.3 1.2-8.1 1.2-14.3V41.2l.4-2.5-2.4.5h-19.5V85l9.6 1.1-.2 3.8-17.5-.2-15.2.2-.2-3.7 6.9-1.2V39.2h-8.2V38l2-3.5h6.2v-1.2c0-3.2.6-6.1 1.9-8.7 1.3-2.5 3.2-5 5.8-7.4l13.1-12h34.4v15.2h-2.7l-12-3.6h-21.2l-1.1 2.3c-.6 1.3-.9 2.8-1.2 4.6-.2 1.8-.4 4.3-.4 7.7v3.3h19.6l13.9-2.3 4.6-.2v51.3c0 5.2-.8 9.4-2.4 12.6-1.6 3.2-4.2 6.6-7.7 10l-11.5 11.8h-8.8v-14.1zm-81.1-14l15-.2 18.9.2.4-3.9-11.2-1.2V56l.8-.9c.3-.4 1.3-1.6 2.9-3.5s2.8-3 3.6-3.3h13.7V31.8h-10.1l-11.4 19.5-1.1-19-4 .2-18.1 3.9.5 3.8 6.7-.8v45.4l-6.7 1.2.1 3.8zm-27.1-46c-2.4-4.9-5.4-7.4-9-7.4-3.3 0-5.7 1.8-7.4 5.3s-2.6 8.9-2.6 16.1c0 6 .6 11.2 1.7 15.5 1.1 4.3 2.6 7.5 4.6 9.8 1.9 2.2 4.1 3.3 6.5 3.3 3.2 0 5.6-1.8 7.3-5.3s2.6-8.9 2.6-16c-.2-9.3-1.4-16.4-3.7-21.3m13.1 37.1c-5.6 4.9-13.3 8.4-23.1 10.6-5.1 0-9.6-1.2-13.7-3.6-4-2.4-7.2-5.8-9.5-10.2-2.3-4.4-3.5-9.3-3.5-14.9 0-9.1 2.8-16.1 8.3-21s13.2-8.4 23-10.6c5.1 0 9.7 1.2 13.8 3.6 4.1 2.4 7.3 5.8 9.6 10.2 2.3 4.4 3.5 9.3 3.5 14.9 0 9.1-2.8 16.1-8.4 21M66 47.1c0 7.4-1 14-2.9 19.9-1.9 5.9-4.7 10.5-8.3 13.9-3.6 3.3-7.7 5-12.5 4.9l-11.1-1.1V11.2l9.2-.8c8.2-.1 14.6 3.2 19 10C63.8 27.1 66 36 66 47.1m19.5-1.2c0-12.5-3.5-22.3-10.6-29.2S57.9 6.3 45 6.3l-24.2.2-16.3-.2-.2 3.8 8.6 1.2v73.5L4.4 86l.2 3.8 16.1-.2 23.9.2c13.7-1.2 24-5.7 30.8-13.4 6.7-7.7 10.1-17.8 10.1-30.5" clip-path="url(#b)" fill="#fff"/></svg>