<svg xmlns="http://www.w3.org/2000/svg" viewBox="0 0 65 65"><defs><style>.cls-1{fill-rule:evenodd;}</style></defs><title>sun</title><g id="Ebene_2" data-name="Ebene 2"><g id="sun"><g id="Page-1"><g id="icon-29-sun"><path fill="white" id="sun-2" data-name="sun" class="cls-1" d="M32.5,51.16A18.76,18.76,0,1,0,13.74,32.4,18.76,18.76,0,0,0,32.5,51.16Zm0-3.41A15.35,15.35,0,1,0,17.15,32.4,15.35,15.35,0,0,0,32.5,47.75ZM32.5,0a1.69,1.69,0,0,0-1.71,1.69V8.54a1.72,1.72,0,0,0,1.71,1.69,1.69,1.69,0,0,0,1.71-1.69V1.69A1.72,1.72,0,0,0,32.5,0Zm23,9.52a1.68,1.68,0,0,0-2.4,0l-4.85,4.84a1.72,1.72,0,0,0,0,2.4,1.68,1.68,0,0,0,2.4,0l4.84-4.85a1.71,1.71,0,0,0,0-2.4ZM65,32.5a1.69,1.69,0,0,0-1.69-1.71H56.46a1.72,1.72,0,0,0-1.69,1.71,1.69,1.69,0,0,0,1.69,1.71h6.85A1.72,1.72,0,0,0,65,32.5Zm-9.52,23a1.68,1.68,0,0,0,0-2.4l-4.84-4.85a1.72,1.72,0,0,0-2.4,0,1.68,1.68,0,0,0,0,2.4l4.85,4.84a1.71,1.71,0,0,0,2.4,0ZM32.5,65a1.69,1.69,0,0,0,1.71-1.69V56.46a1.72,1.72,0,0,0-1.71-1.69,1.69,1.69,0,0,0-1.71,1.69v6.85A1.72,1.72,0,0,0,32.5,65Zm-23-9.52a1.68,1.68,0,0,0,2.4,0l4.85-4.84a1.72,1.72,0,0,0,0-2.4,1.68,1.68,0,0,0-2.4,0L9.51,53.08a1.71,1.71,0,0,0,0,2.4ZM0,32.5a1.69,1.69,0,0,0,1.69,1.71H8.54a1.72,1.72,0,0,0,1.69-1.71,1.69,1.69,0,0,0-1.69-1.71H1.69A1.72,1.72,0,0,0,0,32.5Zm9.52-23a1.68,1.68,0,0,0,0,2.4l4.84,4.85a1.72,1.72,0,0,0,2.4,0,1.68,1.68,0,0,0,0-2.4L11.92,9.51a1.71,1.71,0,0,0-2.4,0Z"/></g></g></g></g></svg>